HIERARCHY
ROOT Hips
{
  OFFSET -331.093 83.8371 -317.828
  CHANNELS 6 Xposition Yposition Zposition Zrotation Xrotation Yrotation
  JOINT LeftUpLeg
  {
    OFFSET 8.64259 1.95398 -2.38835
    CHANNELS 3 Zrotation Xrotation Yrotation
    JOINT LeftLeg
    {
      OFFSET 43.7702 0 0
      CHANNELS 3 Zrotation Xrotation Yrotation
      JOINT LeftFoot
      {
        OFFSET 40.6238 0 0
        CHANNELS 3 Zrotation Xrotation Yrotation
        JOINT LeftToeBase
        {
          OFFSET 12.7242 0 0
          CHANNELS 3 Zrotation Xrotation Yrotation
          End Site
          {
            OFFSET 0 0 0
          }
        }
      }
    }
  }
  JOINT RightUpLeg
  {
    OFFSET -8.2249 1.95398 -2.59336
    CHANNELS 3 Zrotation Xrotation Yrotation
    JOINT RightLeg
    {
      OFFSET 43.5653 0 0
      CHANNELS 3 Zrotation Xrotation Yrotation
      JOINT RightFoot
      {
        OFFSET 40.6238 0 0
        CHANNELS 3 Zrotation Xrotation Yrotation
        JOINT RightToeBase
        {
          OFFSET 12.7242 0 0
          CHANNELS 3 Zrotation Xrotation Yrotation
          End Site
          {
            OFFSET 0 0 0
          }
        }
      }
    }
  }
  JOINT Spine
  {
    OFFSET 0.165834 0.87714 6.61349
    CHANNELS 3 Zrotation Xrotation Yrotation
    JOINT Spine1
    {
      OFFSET 7.38963 1.71661e-005 0
      CHANNELS 3 Zrotation Xrotation Yrotation
      JOINT Spine2
      {
        OFFSET 11.9445 1.14441e-005 0
        CHANNELS 3 Zrotation Xrotation Yrotation
        JOINT Spine3
        {
          OFFSET 14.7254 4.19617e-005 0
          CHANNELS 3 Zrotation Xrotation Yrotation
          JOINT Spine4
          {
            OFFSET 10.9679 0 0
            CHANNELS 3 Zrotation Xrotation Yrotation
            JOINT RightShoulder
            {
              OFFSET 2.46616 -1.6653 3.69651
              CHANNELS 3 Zrotation Xrotation Yrotation
              JOINT RightArm
              {
                OFFSET 13.0012 0 0
                CHANNELS 3 Zrotation Xrotation Yrotation
                JOINT RightForeArm
                {
                  OFFSET 28.7848 1.62311e-005 0
                  CHANNELS 3 Zrotation Xrotation Yrotation
                  JOINT RightHand
                  {
                    OFFSET 26.5688 1.62095e-005 0
                    CHANNELS 3 Zrotation Xrotation Yrotation
                    End Site
                    {
                      OFFSET 0 0 0
                    }
                  }
                }
              }
            }
            JOINT LeftShoulder
            {
              OFFSET 2.38034 -1.29275 -3.7523
              CHANNELS 3 Zrotation Xrotation Yrotation
              JOINT LeftArm
              {
                OFFSET 16.3182 6.07031e-005 0
                CHANNELS 3 Zrotation Xrotation Yrotation
                JOINT LeftForeArm
                {
                  OFFSET 27.0901 0 0
                  CHANNELS 3 Zrotation Xrotation Yrotation
                  JOINT LeftHand
                  {
                    OFFSET 24.5451 1.51738e-005 0
                    CHANNELS 3 Zrotation Xrotation Yrotation
                    End Site
                    {
                      OFFSET 0 0 0
                    }
                  }
                }
              }
            }
            JOINT Neck
            {
              OFFSET 5.0226 -0.0266342 0
              CHANNELS 3 Zrotation Xrotation Yrotation
              JOINT Head
              {
                OFFSET 6.69364 2.86102e-005 0
                CHANNELS 3 Zrotation Xrotation Yrotation
                End Site
                {
                  OFFSET 0 0 0
                }
              }
            }
          }
        }
      }
    }
  }
}
MOTION
Frames:	18
Frame Time:	0.0416667
-283.415 95.0386 -265.825 63.6962 -45.8121 68.9522 -174.907 46.4744 88.0916 -7.76717 4.47965 -2.21619 37.5242 -13.272 -9.14809 30.4409 5.61738 16.2427 162.127 75.2436 107.404 -74.7573 -33.4089 -4.64858 86.4391 -15.8349 -9.39661 26.1394 50.2896 159.076 1.03047 5.7814 -89.3431 15.3032 2.36559 0.961001 3.63407 2.40562 0.855905 -18.9111 1.96741 1.62769 1.1016 1.96744 1.62769 92.9087 -37.0607 -98.6982 37.2207 -14.971 19.6496 -22.2758 -1.80774 -101.92 -32.5368 4.32108 -20.7526 -88.2867 -43.1709 80.3642 -51.2657 11.0663 47.3941 13.1399 -6.37127 -85.5396 36.4753 3.1178 4.71143 -2.79219 -2.26695 -0.0987777 2.20826 -2.28077 -1.36517 
-275.739 91.9472 -258.988 72.4761 -54.0381 72.5375 -168.409 41.4588 86.6069 -27.3514 12.5813 -8.42669 51.7715 -5.62492 1.532 27.3341 -0.0749059 5.07345 -175.268 67.4888 90.4384 -95.9797 -27.5045 -5.41816 98.5172 -27.569 -7.74831 20.6945 29.2404 160.833 1.55229 6.58295 -88.9402 13.6826 3.593 1.64647 2.01583 3.66196 1.48657 -20.5402 2.9321 2.65063 -0.52751 2.9321 2.65061 93.131 -38.724 -97.9023 40.7309 -20.2854 23.129 -16.129 1.93044 -92.903 -33.8142 2.09865 -11.5133 -89.9103 -44.9114 78.1748 -45.4605 12.5685 42.4301 12.5867 -5.76202 -84.6497 40.0012 3.56869 5.05332 -3.1412 -1.76728 -1.31009 2.33174 -1.64725 -1.19168 
-266.167 89.941 -250.855 79.7815 -50.9411 78.6967 -166.851 38.3516 83.0417 -45.5102 13.0759 -8.44251 63.3904 4.61014 7.94265 33.5342 2.89967 -2.67028 -175.574 49.1786 87.3247 -108.963 -15.5042 -3.39665 114.162 -36.8698 -2.87366 0.448705 -39.6573 142.318 0.813859 7.08249 -88.8498 12.6836 2.16493 2.0426 1.01271 2.25269 1.94535 -21.5146 1.45124 2.5985 -1.50192 1.45123 2.59849 92.4385 -40.5289 -98.6833 41.829 -22.1137 24.404 -14.2725 3.34098 -85.2799 -29.2502 -1.68482 1.35628 -92.215 -47.2696 75.2064 -36.6844 13.2201 34.8214 10.6484 -5.30581 -83.9901 37.7322 3.64315 5.82308 -1.48196 -0.634115 -2.56483 2.72134 -0.32829 -0.844135 
-256.281 88.8513 -243.378 87.1295 -42.8013 84.1421 -171.091 29.7055 79.8968 -53.4396 14.4711 -4.62076 67.4215 9.20571 11.0893 45.7593 13.4139 0.896004 175.423 38.1127 89.548 -115.734 -2.83402 -2.71547 89.3074 -20.215 -6.12033 -78.1262 -16.9627 12.2848 -0.35879 7.82718 -88.8021 11.2148 -0.157085 2.39591 -0.458349 -0.051517 2.40049 -22.9774 -0.869719 2.2381 -2.96475 -0.869725 2.23809 92.0596 -41.6041 -99.0797 41.2279 -22.1068 24.3534 -11.5505 -1.09505 -74.9012 -33.9758 -0.93433 -1.99412 -95.1546 -47.8651 70.9344 -27.5374 15.2055 22.6265 8.77425 -4.51133 -79.7668 39.1476 3.29162 4.53822 2.25602 -0.221349 -3.57383 1.30175 0.316701 -1.16452 
-247.22 89.5356 -235.183 87.7388 -41.2649 86.536 -172.512 20.6779 82.8894 -52.7278 17.6267 -3.3282 67.6799 10.3753 12.726 53.9072 21.546 3.22747 174.888 44.9478 91.8864 -109.446 6.01766 -2.60743 49.5526 1.1515 0.585712 23.4019 -0.798477 -12.5416 -0.704905 7.83323 -89.0786 11.2123 -0.97441 1.93001 -0.45974 -0.888553 1.971 -22.9898 -1.50935 1.54806 -2.97714 -1.50935 1.54805 91.8602 -43.091 -99.063 40.8033 -22.9808 29.6469 -11.2662 -2.47715 -70.5976 -33.6679 -0.726726 -2.66248 -94.3901 -46.9443 71.8055 -25.1985 15.1264 16.2145 11.1275 -5.20265 -83.4364 37.2062 3.74127 6.25251 1.13399 0.316766 -4.09776 1.41824 0.922035 -0.0396488 
-237.495 92.3976 -226.14 88.2353 -40.4361 88.7589 -173.895 8.47107 85.9564 -44.586 20.9157 -1.81113 64.1192 4.24246 6.19423 53.2601 24.2061 8.54249 175.609 46.6783 93.5852 -93.5739 4.65668 -1.85822 52.958 1.36571 0.76935 26.672 -0.575471 -6.14481 -0.987675 7.71831 -89.3888 11.4465 -1.67956 1.38731 -0.224233 -1.61689 1.45988 -22.7654 -2.01883 0.818302 -2.75277 -2.01884 0.818299 92.0444 -43.8242 -98.5893 41.7495 -23.4086 36.4767 -12.3261 -3.50268 -69.5503 -25.3353 -1.01569 -0.334253 -92.6861 -45.4691 73.9835 -26.8244 14.543 13.4652 14.2506 -6.67976 -89.4357 37.0488 3.98673 6.9817 -0.604182 0.965724 -4.89384 0.898099 1.66147 1.86354 
-227.672 95.1113 -217.007 88.5891 -38.9054 89.0253 -174.579 -1.84129 91.3184 -32.9982 26.2913 -0.350023 53.71 -4.94642 -1.06748 39.9657 15.7907 17.2839 176.493 44.7611 92.77 -72.0754 -1.55921 -1.13679 55.1886 2.21777 1.31947 28.6111 -1.68836 -15.0573 -1.37284 7.57125 -89.6042 11.745 -2.54445 1.05757 0.0760634 -2.49544 1.16857 -22.4787 -2.74459 0.243432 -2.4661 -2.74459 0.243437 92.5804 -41.8411 -98.1424 43.8811 -21.9944 42.0647 -14.7242 -6.01248 -67.6665 -28.7536 -0.37918 -3.77936 -91.7105 -44.6027 75.2678 -29.9566 15.1669 13.0719 15.4374 -8.97905 -95.0529 35.4863 3.81557 6.99027 -1.65752 1.65309 -4.09466 0.205537 2.19981 3.06678 
-218.212 96.8631 -207.744 86.9487 -38.5453 88.7642 -173.25 -10.5197 92.9179 -24.0887 30.0143 0.368992 44.3935 -10.9079 -5.52218 20.0978 -5.26739 8.63742 176.991 40.4546 93.2351 -42.9316 0.882618 -0.440543 50.9734 3.82129 2.89476 30.0474 -1.52617 -11.5457 -1.54817 7.25831 -89.8446 12.3703 -3.00256 0.652547 0.702593 -2.97092 0.78416 -21.8606 -3.05974 -0.280878 -1.84794 -3.05971 -0.28088 93.55 -40.8079 -96.7111 45.2369 -21.0551 47.2385 -15.2736 -5.97119 -67.1743 -24.5346 -0.466805 -3.13324 -91.0082 -43.6689 76.1245 -33.2739 17.3013 15.0491 13.9513 -12.0836 -101.825 35.1979 3.1821 5.21568 -1.28531 1.95028 -4.80659 -1.66616 2.56069 4.78433 
-208.598 97.5957 -198.969 85.4091 -35.8576 86.9059 -172.967 -12.9116 94.7136 -25.0493 25.5108 1.35613 38.7818 -13.645 -6.94811 14.3597 -10.1492 10.5064 175.919 33.3032 91.1026 -11.2587 0.742402 0.302368 41.0924 6.43888 5.89515 27.0679 -1.12934 -11.2074 -1.98936 7.03727 -89.9381 12.8171 -3.92089 0.592654 1.15182 -3.89101 0.764884 -21.4304 -3.91746 -0.615001 -1.41772 -3.91745 -0.615005 94.5524 -38.7382 -95.3832 46.178 -19.9232 50.0748 -16.1864 -6.68402 -66.5097 -24.2013 -0.199208 -4.47739 -91.0807 -43.3946 75.9359 -34.695 19.0858 16.4654 16.9786 -15.4845 -107.384 32.502 3.57078 7.25018 1.73259 2.03265 -4.60734 -4.07216 2.61726 5.53822 
-198.791 96.8834 -190.001 86.1962 -34.5522 85.3598 -172.162 -13.7635 95.0078 -33.2958 17.8207 1.71075 44.727 -10.0275 -4.01781 15.2739 -9.37292 10.886 174.42 32.2167 89.3671 -6.4032 4.27951 1.07325 38.7082 7.14705 6.82703 26.7166 -0.710169 -7.57221 -2.19792 6.95337 -89.8316 12.9924 -4.28266 0.858873 1.32806 -4.24072 1.04685 -21.2637 -4.34243 -0.470428 -1.25103 -4.34243 -0.470433 94.6381 -38.2492 -95.3277 44.3223 -17.1921 50.6716 -12.7435 -5.09702 -66.1761 -19.1899 -0.190037 -4.35885 -91.1856 -42.7928 75.605 -35.9447 21.2677 17.46 17.4142 -16.301 -106.887 30.944 3.11895 6.34121 2.77888 2.0314 -3.29441 -5.25102 2.39599 5.15574 
-189.427 93.7563 -181.798 89.3035 -37.4676 85.9362 -170.935 -12.4632 93.7288 -48.4354 11.1187 1.31099 47.667 -8.47722 -0.441775 19.1701 -6.43459 6.07321 173.539 32.9916 90.1537 -22.0877 0.55638 1.57672 47.631 4.25093 3.81479 21.0541 -0.158099 -4.8236 -1.90477 7.10689 -89.7574 12.6801 -3.66714 0.921731 1.01383 -3.62303 1.08242 -21.5628 -3.77441 -0.224584 -1.55015 -3.77442 -0.224591 94.5743 -39.148 -95.2657 40.5766 -16.5562 47.1966 -6.99599 -3.14279 -64.365 -14.1574 -0.26006 -3.24699 -91.9073 -43.1316 74.5445 -36.6319 22.1322 18.6234 16.0526 -13.424 -100.752 32.159 2.94479 5.37309 1.55052 2.01419 -1.53835 -4.69488 2.10966 5.00286 
-180.983 90.4365 -174.197 93.4373 -40.3204 91.2233 -168.469 -6.76612 96.4454 -65.4579 9.8221 1.74291 49.5 -7.3038 1.94024 24.8846 -1.86021 5.9081 174.028 33.2266 95.5893 -44.9005 0.619501 1.04296 68.3248 -2.99781 -1.80687 25.2005 -0.388339 -4.6992 -1.49902 7.55412 -90.117 11.772 -3.03632 0.0841672 0.104564 -3.02968 0.217834 -22.4578 -2.92112 -0.833065 -2.44512 -2.9211 -0.833066 93.4931 -40.8162 -96.8067 37.1734 -17.656 39.1657 -13.6265 -8.20075 -60.7129 -19.447 -0.491486 -2.53996 -93.9461 -45.4199 72.022 -34.6078 19.3208 18.4845 16.2603 -8.15614 -88.6436 31.2523 2.74343 4.99503 -0.271427 1.61518 0.215561 -2.27897 1.55658 4.45382 
-173.828 88.6426 -167.059 94.1799 -42.5311 96.5061 -167.987 6.14178 99.813 -79.7566 8.49911 2.90302 52.913 -5.27596 2.00698 32.3569 4.77287 7.51464 175.868 30.0685 102.557 -53.4901 6.03385 0.302564 77.3585 -7.44257 -3.71944 29.1212 -0.377373 -3.06605 -0.907435 7.94674 -90.8581 10.9646 -2.20375 -1.49772 -0.705201 -2.26752 -1.39927 -23.2428 -1.65185 -2.09075 -3.23016 -1.65184 -2.09075 91.4916 -42.5125 -99.817 32.0542 -18.4066 26.0095 -11.0429 -7.2448 -56.1896 -20.1032 -0.587891 -1.98136 -97.151 -49.7696 68.5936 -30.7048 14.7199 14.8926 14.6809 -0.0818101 -73.3184 34.4378 3.3844 6.04689 0.609479 0.74915 2.95625 -1.12737 0.336366 3.39633 
-166.75 88.502 -160.995 93.7966 -45.1214 92.913 -169.188 18.1263 92.9899 -83.4492 5.33273 2.41958 56.1146 -2.12754 4.4381 42.9684 14.4177 9.06332 176.765 25.5614 99.9215 -57.2691 5.35837 -1.71039 82.7231 -10.129 -4.54998 35.0105 -0.71578 -3.47964 -0.430886 7.95467 -90.4206 10.9582 -1.05244 -0.736721 -0.712468 -1.08385 -0.689693 -23.248 -0.782373 -1.01895 -3.23533 -0.782383 -1.01897 91.55 -41.951 -99.857 31.0771 -17.8654 15.2652 -15.1205 -10.4015 -59.0588 -23.1931 -0.87069 -0.949459 -95.7624 -48.811 70.3255 -33.345 14.0272 16.9243 10.0783 5.04866 -58.5464 33.3765 2.79827 4.56569 -0.272336 -0.317912 2.3093 0.442655 -0.552815 3.6411 
-159.97 90.068 -154.545 89.7912 -45.9844 89.126 -171.687 31.1113 90.2219 -77.2391 0.851739 2.16908 61.2574 1.75736 6.14631 48.0543 15.5076 2.71253 177.229 20.1939 98.552 -53.725 4.74645 -2.73764 82.4044 -10.205 -4.5905 40.7255 -0.83002 -2.8166 0.00582386 7.78242 -90.2769 11.3099 -0.117452 -0.541611 -0.361172 -0.141167 -0.535932 -22.8956 0.0507507 -0.551878 -2.88292 0.050768 -0.551867 92.5931 -39.7409 -98.6058 33.4279 -17.4003 7.65123 -15.8612 -5.19481 -67.9483 -22.8546 -0.777682 -1.34365 -95.7613 -49.0212 70.393 -35.3432 14.6672 24.6202 11.001 5.85207 -59.7981 33.8709 3.54272 6.70372 0.271829 -1.57005 1.75308 1.65162 -1.69552 3.23725 
-152.173 92.9223 -147.69 88.1859 -47.7311 85.9159 -173.502 35.206 88.6581 -59.5054 1.14964 0.104481 61.151 0.895181 4.01711 41.6388 20.0664 21.8301 176.853 11.8831 94.6019 -47.9053 -2.05483 -4.35391 76.982 -7.66987 -3.88946 45.479 -1.22274 -3.39352 0.587077 7.71699 -89.9853 11.4412 1.175 -0.0892402 -0.229198 1.16993 -0.140881 -22.7684 1.14748 0.268066 -2.75576 1.14749 0.268073 92.8398 -38.502 -98.4708 34.3155 -16.6605 3.87792 -15.939 -1.81409 -78.1465 -21.8774 -0.564599 -2.31774 -93.81 -47.7069 72.9089 -39.5032 17.7696 31.7024 12.3178 6.63037 -60.9648 33.9574 3.5723 6.7617 -1.48146 -3.29974 1.56622 3.42786 -3.37651 1.70465 
-143.655 95.7088 -140.753 87.0988 -49.9721 84.2096 -175.24 32.0703 89.8251 -31.2669 3.86128 -1.96052 54.0313 -4.97158 -3.05197 34.7367 14.7984 27.6917 174.806 5.01122 90.0337 -42.7559 -10.502 -5.58981 66.2518 -1.93282 -1.39899 48.6755 -1.14142 -2.61583 1.18396 7.69411 -89.807 11.4864 2.44577 0.135037 -0.182257 2.44935 0.0271873 -22.7341 2.29207 0.864231 -2.72148 2.29207 0.864237 93.1015 -37.6169 -98.2161 34.2952 -17.1244 1.91459 -19.064 1.63877 -88.0645 -24.4095 -0.943612 -0.739128 -91.5725 -45.5873 75.7454 -43.8031 17.3257 37.9627 13.9272 6.74473 -62.6573 33.0507 3.48209 6.7845 -2.48102 -4.87813 0.859049 3.75256 -4.86312 1.16641 
-134.819 97.9826 -133.754 85.3576 -51.4228 82.8411 -178.138 28.926 91.2465 -6.27611 4.11515 -1.84122 43.7372 -11.1195 -10.0153 28.7219 6.59596 25.2668 172.185 -0.652243 86.2504 -37.1439 -15.8034 -6.25765 56.9481 2.91246 1.75362 40.1604 -0.518475 -1.82417 1.545 7.53215 -89.736 11.8108 3.1967 0.186827 0.1438 3.20181 0.0458016 -22.4199 2.99263 1.13979 -2.40726 2.9926 1.13978 93.4534 -35.6894 -98.0394 34.5911 -17.5948 1.05189 -22.8553 4.96881 -94.663 -20.9977 -0.83276 -0.72739 -89.7586 -42.9516 77.9426 -48.7264 15.346 44.7741 15.4927 5.9656 -65.4542 32.1647 3.23694 6.30711 -3.78746 -5.70918 0.936755 4.39537 -5.73199 0.282451 
